<svg width="25" height="26" viewBox="0 0 25 26" fill="none" xmlns="http://www.w3.org/2000/svg">
<g id="Group 50">
<path id="Vector" d="M21.6999 9.70129H11.3499C10.0797 9.70129 9.04993 10.7169 9.04993 11.9697V22.1773C9.04993 23.4301 10.0797 24.4457 11.3499 24.4457H21.6999C22.9702 24.4457 23.9999 23.4301 23.9999 22.1773V11.9697C23.9999 10.7169 22.9702 9.70129 21.6999 9.70129Z" stroke="white" stroke-width="1.97143" stroke-linecap="round" stroke-linejoin="round"/>
<path id="Vector_2" d="M4.45 16.5061H3.3C2.69 16.5061 2.10499 16.2671 1.67365 15.8417C1.24232 15.4163 1 14.8393 1 14.2377V4.03009C1 3.42848 1.24232 2.85151 1.67365 2.42611C2.10499 2.00071 2.69 1.76172 3.3 1.76172H13.65C14.26 1.76172 14.845 2.00071 15.2763 2.42611C15.7077 2.85151 15.95 3.42848 15.95 4.03009V5.16427" stroke="white" stroke-width="1.97143" stroke-linecap="round" stroke-linejoin="round"/>
</g>
</svg>
