<svg width="28" height="28" viewBox="0 0 28 28" fill="none" xmlns="http://www.w3.org/2000/svg">
<g id="Group 37">
<g id="Group 22">
<g id="Group">
<path id="Vector" d="M3.57202 4.14411C3.65106 4.22358 3.75485 4.26287 3.8586 4.26287C3.96239 4.26287 4.06614 4.22353 4.14518 4.14411C4.3037 3.98602 4.3037 3.72903 4.14518 3.57094L2.99842 2.42455C2.8399 2.26603 2.58334 2.26603 2.42525 2.42455C2.26678 2.58264 2.26678 2.83963 2.42525 2.99772L3.57202 4.14411Z" fill="white" stroke="#F1F2FF" stroke-width="1.5"/>
<path id="Vector_2" d="M7.87129 4.26325C7.97509 4.26325 8.07883 4.22353 8.15788 4.14449L9.30422 2.99772C9.46269 2.8392 9.46269 2.58264 9.30422 2.42455C9.14613 2.26603 8.88952 2.26603 8.73105 2.42455L7.58471 3.57132C7.42619 3.72941 7.42619 3.9864 7.58471 4.14449C7.66371 4.22353 7.7675 4.26325 7.87129 4.26325Z" fill="white" stroke="#F1F2FF" stroke-width="1.5"/>
<path id="Vector_3" d="M5.86472 3.43216C6.08846 3.43216 6.27007 3.25056 6.27007 3.02682V1.40536C6.27007 1.18162 6.08846 1.00002 5.86472 1.00002C5.64098 1.00002 5.45938 1.18162 5.45938 1.40536V3.02677C5.45933 3.25056 5.64094 3.43216 5.86472 3.43216Z" fill="white" stroke="#F1F2FF" stroke-width="1.5"/>
<path id="Vector_4" d="M3.43257 5.86431C3.43257 5.64057 3.25097 5.45897 3.02723 5.45897H1.40534C1.1816 5.45897 1 5.64057 1 5.86431C1 6.08805 1.1816 6.26965 1.40534 6.26965H3.02718C3.25097 6.26965 3.43257 6.08805 3.43257 5.86431Z" fill="white" stroke="#F1F2FF" stroke-width="1.5"/>
<path id="Vector_5" d="M3.57152 7.58471L2.4248 8.73143C2.26628 8.88995 2.26628 9.14651 2.4248 9.3046C2.50384 9.38403 2.60763 9.42336 2.71138 9.42336C2.81517 9.42336 2.91892 9.38403 2.99797 9.3046L4.14473 8.15784C4.30282 7.99975 4.30282 7.74314 4.14473 7.58467C3.98622 7.4262 3.72965 7.4262 3.57152 7.58471Z" fill="white" stroke="#F1F2FF" stroke-width="1.5"/>
<path id="Vector_6" d="M26.9708 21.5779C26.529 20.4774 26.4297 19.6736 26.3332 18.8965C26.2031 17.8486 26.0689 16.7647 25.1074 15.0991L22.4725 10.5352C22.0482 9.8007 20.993 9.51692 20.2572 9.94174C20.0112 10.084 19.8061 10.2972 19.665 10.5522C19.3922 10.1594 18.9941 9.87889 18.5272 9.75363C18.0043 9.61335 17.4583 9.68593 16.9893 9.95589C16.5434 10.2133 16.2325 10.6158 16.0813 11.0694C15.4473 10.5457 14.5279 10.4403 13.7752 10.8756C13.337 11.1286 13.0152 11.5271 12.8611 12.0054L9.37263 7.0994C8.34628 5.70049 7.33694 5.98508 6.82577 6.28055C6.35515 6.55212 6.04463 6.98464 5.95062 7.49904C5.86426 7.97208 5.96601 8.49095 6.24329 8.97007L11.8526 18.0837C11.9698 18.2743 12.2195 18.3338 12.41 18.2167C12.6009 18.0991 12.6605 17.8498 12.5429 17.6593L6.93925 8.55503C6.76453 8.25182 6.69646 7.92876 6.74834 7.64421C6.7994 7.36409 6.96642 7.13551 7.23111 6.98269C7.41352 6.87728 7.96807 6.55626 8.71552 7.5741L13.0545 13.6767C13.1797 13.8526 13.4213 13.8997 13.6041 13.783C13.7861 13.6658 13.8441 13.4263 13.7359 13.239C13.5733 12.9576 13.5304 12.6301 13.6143 12.316C13.6981 12.0022 13.8996 11.74 14.1805 11.5778C14.7614 11.243 15.5073 11.442 15.8421 12.0229L16.2458 12.7226C16.2466 12.7234 16.2471 12.7242 16.2474 12.725C16.3593 12.9192 16.6074 12.9849 16.8012 12.8734C16.9949 12.7615 17.0614 12.5138 16.9495 12.3197C16.6143 11.7388 16.8137 10.9937 17.3946 10.6585C17.6756 10.496 18.0051 10.453 18.3172 10.5369C18.6314 10.6212 18.8933 10.8223 19.0554 11.1036L19.6622 12.1543C19.6626 12.1551 19.663 12.1559 19.6634 12.1567C19.7757 12.3505 20.0234 12.4165 20.2175 12.3051C20.4113 12.1932 20.4778 11.9455 20.3659 11.7513C20.2633 11.5742 20.2378 11.35 20.2962 11.1368C20.3545 10.9244 20.4879 10.7448 20.6626 10.6438C21.0177 10.4387 21.5661 10.5863 21.7705 10.9405L24.4053 15.5045C25.2849 17.0274 25.4033 17.984 25.5285 18.9962C25.6218 19.7469 25.7175 20.5208 26.0924 21.5508L18.2503 26.0786C16.8843 24.6076 14.7963 23.064 12.0374 21.4867C11.7391 21.316 11.4432 21.151 11.1526 20.9926C10.4075 20.5864 9.88134 19.7789 9.87203 19.0294C9.86799 18.6889 9.97497 18.2183 10.5084 17.9106C10.7026 17.7983 10.7691 17.5503 10.6572 17.3565C10.5449 17.1627 10.2964 17.0963 10.1031 17.2082C9.42208 17.6018 9.05199 18.2519 9.06172 19.0392C9.07389 20.0846 9.75854 21.1555 10.7647 21.7048C11.0504 21.8604 11.3415 22.0226 11.635 22.1904C14.4708 23.8118 16.5669 25.3834 17.8649 26.8609C17.944 26.9509 18.0558 26.9987 18.1694 26.9987C18.2387 26.9987 18.3088 26.9809 18.372 26.9444L26.7974 22.0801C26.9721 21.9792 27.0458 21.7652 26.9708 21.5779Z" fill="white" stroke="#F1F2FF" stroke-width="1.5"/>
</g>
</g>
</g>
</svg>
