<svg width="22" height="19" viewBox="0 0 22 19" fill="none" xmlns="http://www.w3.org/2000/svg">
<path id="Vector" d="M11.8238 18.3471C11.7007 18.2228 11.6031 18.0751 11.5365 17.9124C11.4699 17.7498 11.4356 17.5754 11.4356 17.3992C11.4356 17.2231 11.4699 17.0487 11.5365 16.886C11.6031 16.7234 11.7007 16.5756 11.8238 16.4513L17.4865 10.7092L1.31974 10.7092C0.969722 10.7092 0.634042 10.5682 0.386543 10.3173C0.139044 10.0663 0 9.72592 0 9.371C0 9.01608 0.139044 8.6757 0.386543 8.42474C0.634042 8.17377 0.969722 8.03278 1.31974 8.03278L17.4865 8.03278L11.8238 2.28845C11.5758 2.03705 11.4366 1.69608 11.4366 1.34055C11.4366 0.98501 11.5758 0.644038 11.8238 0.392637C12.0717 0.141236 12.408 3.74616e-09 12.7586 0C13.1092 -3.74617e-09 13.4455 0.141236 13.6934 0.392637L21.6118 8.42198C21.7349 8.5463 21.8325 8.69403 21.8991 8.8567C21.9657 9.01936 22 9.19376 22 9.36989C22 9.54602 21.9657 9.72041 21.8991 9.88308C21.8325 10.0457 21.7349 10.1935 21.6118 10.3178L13.6934 18.3471C13.5708 18.4719 13.4251 18.5709 13.2647 18.6384C13.1043 18.706 12.9323 18.7407 12.7586 18.7407C12.5849 18.7407 12.4129 18.706 12.2525 18.6384C12.0921 18.5709 11.9464 18.4719 11.8238 18.3471Z" fill="#ECECEC"/>
</svg>
